<?xml version="1.0" encoding="utf-8"?>
<!-- Generator: Adobe Illustrator 23.0.1, SVG Export Plug-In . SVG Version: 6.00 Build 0)  -->
<svg version="1.1" id="Layer_1" xmlns="http://www.w3.org/2000/svg" xmlns:xlink="http://www.w3.org/1999/xlink" x="0px" y="0px"
	 viewBox="0 0 1035.33 288" style="enable-background:new 0 0 1035.33 288;" xml:space="preserve">
<style type="text/css">
	.st0{fill:#99CCFF;}
	.st1{fill:#336699;}
	.st2{fill:#6699CC;}
</style>
<g>
	<path class="st0" d="M144.33,0l144,144V45c0-24.85-20.15-45-45-45H144.33z"/>
	<polygon class="st1" points="288.33,144 144.33,288 144.33,144 	"/>
	<path class="st2" d="M0.33,0v119.86c0,15.46,6.14,30.28,17.07,41.21L144.33,288V144L0.33,0z"/>
</g>
<g>
	<path class="st1" d="M439.67,230.56h-24.45l-54.88-145.9h22.01l39.94,107.59c0.72,2,1.4,4.26,2.04,6.79
		c0.63,2.54,1.13,4.89,1.49,7.06c0.54,2.72,1.09,5.53,1.63,8.42c0.54-2.9,1.09-5.71,1.63-8.42c0.54-2.35,1.13-4.8,1.77-7.34
		c0.63-2.53,1.31-4.8,2.04-6.79l39.4-107.32h22.28L439.67,230.56z"/>
	<path class="st1" d="M537.75,163.73c0.36,9.06,1.31,16.94,2.85,23.64c1.54,6.7,4.03,12.27,7.47,16.71
		c3.44,4.44,8.01,7.74,13.72,9.92c5.71,2.17,12.81,3.26,21.33,3.26c10.69,0,19.29-1.77,25.81-5.3c6.52-3.53,11.59-8.83,15.22-15.89
		l18.48,7.34c-4.89,9.96-11.91,17.71-21.06,23.23c-9.15,5.52-21.97,8.29-38.45,8.29c-23.37,0-40.53-6.16-51.49-18.48
		c-10.96-12.32-16.44-31.97-16.44-58.96c0-12.32,1.13-23.23,3.4-32.74c2.26-9.51,6.07-17.57,11.41-24.18
		c5.34-6.61,12.36-11.64,21.06-15.08c8.69-3.44,19.47-5.16,32.33-5.16c13.58,0,24.45,2.08,32.6,6.25
		c8.15,4.17,14.4,9.78,18.75,16.85c4.35,7.06,7.15,15.26,8.42,24.59c1.26,9.33,1.9,19.16,1.9,29.48v6.25H537.75z M623.06,146.07
		c0-7.47-0.54-14.16-1.63-20.08c-1.09-5.92-3.08-10.93-5.98-15.03c-2.9-4.1-6.93-7.28-12.09-9.56c-5.16-2.28-11.82-3.42-19.97-3.42
		c-7.06,0-13.31,0.82-18.75,2.46c-5.43,1.64-10.05,4.33-13.86,8.06c-3.8,3.74-6.79,8.65-8.97,14.76c-2.17,6.1-3.53,13.71-4.08,22.81
		H623.06z"/>
	<path class="st1" d="M801.84,157.48c0,12.14-1.18,23.01-3.53,32.6c-2.36,9.6-6.11,17.75-11.28,24.45
		c-5.16,6.7-11.91,11.78-20.24,15.21c-8.33,3.44-18.48,5.16-30.43,5.16c-11.95,0-22.05-1.72-30.29-5.16
		c-8.24-3.44-14.94-8.47-20.11-15.08c-5.16-6.61-8.92-14.71-11.28-24.32c-2.36-9.6-3.53-20.56-3.53-32.88
		c0-12.32,1.18-23.23,3.53-32.74c2.35-9.51,6.11-17.57,11.28-24.18c5.16-6.61,11.86-11.64,20.11-15.08
		c8.24-3.44,18.34-5.16,30.29-5.16c11.95,0,22.1,1.72,30.43,5.16c8.33,3.44,15.08,8.47,20.24,15.08
		c5.16,6.61,8.92,14.67,11.28,24.18C800.66,134.25,801.84,145.16,801.84,157.48z M780.1,157.48c0-10.87-0.82-20.11-2.45-27.71
		c-1.64-7.61-4.18-13.76-7.63-18.48c-3.45-4.71-7.95-8.1-13.49-10.19c-5.54-2.08-12.31-3.12-20.31-3.12
		c-7.82,0-14.54,1.04-20.17,3.12c-5.63,2.08-10.18,5.48-13.63,10.19c-3.45,4.71-5.99,10.87-7.63,18.48
		c-1.64,7.61-2.45,16.85-2.45,27.71c0,10.87,0.77,20.11,2.31,27.71c1.55,7.61,4.09,13.81,7.63,18.61c3.54,4.8,8.08,8.24,13.63,10.32
		c5.54,2.08,12.31,3.12,20.31,3.12c7.99,0,14.76-1.04,20.31-3.12c5.54-2.08,10.08-5.52,13.63-10.32c3.54-4.8,6.08-11,7.63-18.61
		S780.1,168.34,780.1,157.48z"/>
	<path class="st1" d="M949.64,206.93c-6.89,9.78-14.58,16.89-23.09,21.33c-8.52,4.44-18.75,6.66-30.7,6.66
		c-12.68,0-23.41-1.72-32.2-5.16c-8.79-3.44-15.78-8.47-20.97-15.08c-5.19-6.61-8.95-14.71-11.28-24.32
		c-2.33-9.6-3.49-20.47-3.49-32.6c0-12.5,1.16-23.59,3.49-33.28c2.33-9.69,6.08-17.8,11.28-24.32s12.18-11.45,20.97-14.81
		c8.78-3.35,19.52-5.03,32.2-5.03c13.04,0,23.59,2.27,31.65,6.79c8.06,4.53,15.17,11.23,21.33,20.11l-17.12,8.69
		c-1.81-2.35-3.49-4.48-5.03-6.39c-1.54-1.9-3.58-3.67-6.11-5.3c-2.72-1.99-6.07-3.53-10.05-4.62c-3.99-1.09-8.88-1.63-14.67-1.63
		c-7.79,0-14.63,0.91-20.51,2.72c-5.89,1.81-10.78,4.98-14.67,9.51c-3.9,4.53-6.79,10.64-8.7,18.34c-1.9,7.7-2.85,17.44-2.85,29.21
		c0,11.59,0.86,21.19,2.58,28.8c1.72,7.61,4.48,13.68,8.29,18.2c3.8,4.53,8.65,7.74,14.54,9.65c5.88,1.9,12.99,2.85,21.33,2.85
		c5.43,0,10.05-0.5,13.86-1.49c3.8-0.99,7.11-2.35,9.92-4.08c2.81-1.72,5.25-3.71,7.34-5.98c2.08-2.26,4.12-4.75,6.11-7.47
		L949.64,206.93z"/>
	<path class="st1" d="M1022.73,233.01c-10.32,0-18.25-2.85-23.77-8.56c-5.53-5.71-8.29-14.54-8.29-26.49v-85.31
		c0-1.63,0.18-3.26,0.54-4.89c0.36-1.63,0.82-3.17,1.36-4.62h-24.45V84.66h43.74v113.3c0,6.16,0.99,10.37,2.99,12.63
		c1.99,2.27,4.62,3.4,7.88,3.4h11.41v19.02H1022.73z M1011.86,42.82c0,1.45-0.64,2.17-1.9,2.17h-22.01c-0.91,0-1.45-0.14-1.63-0.41
		c-0.18-0.27-0.27-0.86-0.27-1.77V21.63c0-1.81,0.63-2.72,1.9-2.72h22.01c0.9,0,1.45,0.14,1.63,0.41c0.18,0.27,0.27,1.04,0.27,2.31
		V42.82z"/>
</g>
</svg>
